<svg xmlns="http://www.w3.org/2000/svg" viewBox="0 0 16 16"><g id="Layer_2" data-name="Layer 2"><g id="Layer_1-2" data-name="Layer 1"><path d="M0,8A8,8,0,0,1,8,0a8.06,8.06,0,0,1,8,8,8.06,8.06,0,0,1-8,8A8.06,8.06,0,0,1,0,8ZM14.67,8A6.67,6.67,0,1,0,8,14.67,6.66,6.66,0,0,0,14.67,8Zm-9,3a.67.67,0,0,1,.21-.46L8.37,7.89c.45-.49.94-1,.94-1.54A1.11,1.11,0,0,0,8.07,5.26a1.49,1.49,0,0,0-1.39,1c-.13.23-.27.4-.55.4a.48.48,0,0,1-.51-.5,1.15,1.15,0,0,1,0-.31A2.41,2.41,0,0,1,8,4.27c1.45,0,2.4.79,2.4,2A3.24,3.24,0,0,1,9.24,8.49l-1.86,2v0h2.86a.49.49,0,0,1,.52.51.49.49,0,0,1-.52.52h-4A.5.5,0,0,1,5.65,11Z"/></g></g></svg>