<svg xmlns="http://www.w3.org/2000/svg" viewBox="0 0 16 16"><defs><style>.cls-1{fill:#0f62fe;}</style></defs><g id="Layer_2" data-name="Layer 2"><g id="Layer_1-2" data-name="Layer 1"><path class="cls-1" d="M0,8A8.05,8.05,0,0,1,8,0a8.06,8.06,0,0,1,8,8,8,8,0,0,1-8,8A8.06,8.06,0,0,1,0,8Zm8,4A3.62,3.62,0,0,0,11.6,8.4a.56.56,0,0,0-1.12,0A2.49,2.49,0,1,1,8,5.91a1.32,1.32,0,0,1,.29,0l-.78.78a.48.48,0,0,0-.16.36.52.52,0,0,0,.52.52.54.54,0,0,0,.35-.15L9.78,5.87a.57.57,0,0,0,0-.76L8.23,3.54a.52.52,0,0,0-.37-.17.51.51,0,0,0-.52.52.58.58,0,0,0,.15.38l.56.58-.21,0A3.54,3.54,0,0,0,4.38,8.37,3.62,3.62,0,0,0,8,12Z"/></g></g></svg>