<svg xmlns="http://www.w3.org/2000/svg" viewBox="0 0 13.86 16.89"><g id="Layer_2" data-name="Layer 2"><g id="Layer_1-2" data-name="Layer 1"><path d="M6,7.21a.69.69,0,0,1,.18-.45L8.55,4.43a7.91,7.91,0,0,0-1.62-.15A5.67,5.67,0,1,0,12.6,10a.61.61,0,0,1,.61-.66.63.63,0,0,1,.65.66A6.93,6.93,0,1,1,6.93,3a7.74,7.74,0,0,1,1.36.13L6.2,1.09A.69.69,0,0,1,6,.64.62.62,0,0,1,6.64,0,.58.58,0,0,1,7.1.19l3.23,3.28a.67.67,0,0,1,.2.47.63.63,0,0,1-.2.47L7.1,7.66a.62.62,0,0,1-.46.18A.61.61,0,0,1,6,7.21Z"/></g></g></svg>