<svg xmlns="http://www.w3.org/2000/svg" viewBox="0 0 181.83 241.34"><defs><style>.cls-1{fill:#fbbe01;}.cls-2{fill:#ae1518;}</style></defs><g id="Layer_2" data-name="Layer 2"><g id="Layer_1-2" data-name="Layer 1"><path class="cls-1" d="M88.22,0h0"/><path class="cls-1" d="M176.3,144.33V53.64c0-8.92-1.73-12.14-8.05-14.61C154.75,34,109,16.35,95.53,11.27a24.69,24.69,0,0,0-6.94-2V231.55a12.1,12.1,0,0,0,6.19-2.72C152.27,191.41,176.3,181.38,176.3,144.33Z"/><path class="cls-1" d="M88.22,241.34h0"/><path class="cls-2" d="M83.27,230.93C20.27,191.78,0,180.43,0,143.72V56.39C0,43.77,3.59,39.37,15.4,35,35.56,27.21,62.19,17,82.34,9.72a26.07,26.07,0,0,1,8.58-1.85,26,26,0,0,1,8.56,1.85c20.27,7,46.68,17.49,66.83,25.25,11.93,4.51,15.52,8.8,15.52,21.42v87.33c0,36.71-19.81,48.87-83.39,87.21a16.21,16.21,0,0,1-7.52,2.54C88.37,233.47,85.47,232.2,83.27,230.93Zm8-214.38V224.32a11.3,11.3,0,0,0,5.79-2.54c53.74-35,76.21-44.36,76.21-79V58c0-8.33-1.62-11.34-7.53-13.66-12.62-4.75-55.36-21.2-68-25.94A22.86,22.86,0,0,0,91.26,16.55Z"/></g></g></svg>