<svg xmlns="http://www.w3.org/2000/svg" viewBox="0 0 45.12 56"><defs><style>.cls-1{fill:#fff;}</style></defs><g id="Layer_2" data-name="Layer 2"><g id="Layer_1-2" data-name="Layer 1"><path class="cls-1" d="M41.29,6.72C36.3,4.79,29.75,2.19,24.7.43A6.42,6.42,0,0,0,22.56,0a7.21,7.21,0,0,0-2.13.43c-5,1.88-11.57,4.36-16.59,6.29C.89,7.82,0,8.91,0,12.06V33.73c0,9.11,5,11.94,20.69,21.64a4.12,4.12,0,0,0,1.87.63,4.24,4.24,0,0,0,1.91-.63C40.31,46,45.12,42.84,45.12,33.73V12.06C45.12,8.91,44.26,7.85,41.29,6.72Zm0,24H33.57a1.35,1.35,0,0,1-1.49-1.22l-1.4-6.62-5.33,24.7a1.24,1.24,0,0,1-2.41,0L17.45,14.87,14.2,29.62a1.31,1.31,0,0,1-1.45,1.08h-9a1.21,1.21,0,0,1-1.24-1.21,1.24,1.24,0,0,1,1.24-1.25H12l4.33-19.8a1.17,1.17,0,0,1,2.29,0l5.49,32.91L29.4,17.91a1.21,1.21,0,0,1,2.35-.05l2.38,10.38h7.2a1.23,1.23,0,1,1,0,2.46Z"/></g></g></svg>