<svg xmlns="http://www.w3.org/2000/svg" width="50" height="50">
  <g>
    <g>
      <path d="M 4.46 25 C 4.542 13.69 13.69 4.542 25 4.46 C 36.323 4.531 45.492 13.678 45.59 25 C 45.524 36.344 36.344 45.524 25 45.59 C 13.673 45.503 4.52 36.327 4.46 25 Z M 15.75 29.24 L 20.75 29.24 L 20.75 34.24 C 20.705 34.819 20.914 35.389 21.323 35.802 C 21.732 36.215 22.3 36.43 22.88 36.39 L 27.16 36.39 C 27.74 36.43 28.308 36.215 28.717 35.802 C 29.126 35.389 29.335 34.819 29.29 34.24 L 29.29 29.24 L 34.29 29.24 C 34.866 29.279 35.431 29.067 35.839 28.659 C 36.247 28.251 36.459 27.686 36.42 27.11 L 36.42 22.84 C 36.459 22.264 36.247 21.699 35.839 21.291 C 35.431 20.883 34.866 20.671 34.29 20.71 L 29.29 20.71 L 29.29 15.78 C 29.335 15.201 29.126 14.631 28.717 14.218 C 28.308 13.805 27.74 13.59 27.16 13.63 L 22.85 13.63 C 22.27 13.59 21.702 13.805 21.293 14.218 C 20.884 14.631 20.675 15.201 20.72 15.78 L 20.72 20.71 L 15.72 20.71 C 15.146 20.674 14.584 20.887 14.178 21.295 C 13.772 21.703 13.561 22.266 13.6 22.84 L 13.6 27.13 C 13.56 27.71 13.775 28.278 14.188 28.687 C 14.601 29.096 15.171 29.305 15.75 29.26 Z" fill="rgb(22, 22, 22)"></path>
      <path d="M 25 50 C 11.193 50 0 38.807 0 25 C 0 11.193 11.193 0 25 0 C 38.807 0 50 11.193 50 25 C 50 38.807 38.807 50 25 50 Z M 25 1.71 C 12.137 1.71 1.71 12.137 1.71 25 C 1.71 37.863 12.137 48.29 25 48.29 C 37.863 48.29 48.29 37.863 48.29 25 C 48.273 12.144 37.856 1.727 25 1.71 Z" fill="rgb(22, 22, 22)"></path>
    </g></g>
</svg>