<svg xmlns="http://www.w3.org/2000/svg" viewBox="0 0 13.59 13.59"><defs><style>.cls-1{fill:#fff;}</style></defs><g id="Layer_2" data-name="Layer 2"><g id="Layer_1-2" data-name="Layer 1"><path class="cls-1" d="M0,11.53V2.07A1.85,1.85,0,0,1,2.07,0h9.45a1.85,1.85,0,0,1,2.07,2.07v9.46a1.85,1.85,0,0,1-2.07,2.06H2.07A1.84,1.84,0,0,1,0,11.53ZM11.5,13A1.37,1.37,0,0,0,13,11.5V2.1A1.37,1.37,0,0,0,11.5.57H2.09A1.36,1.36,0,0,0,.57,2.1v9.4A1.35,1.35,0,0,0,2.09,13ZM4.69,3a1.15,1.15,0,0,1,.95-.59A1.13,1.13,0,0,1,6.78,3.57c0,1.14-1.25,2.15-1.94,2.57a.42.42,0,0,1-.15.06.3.3,0,0,1-.13-.06c-.74-.4-2-1.43-2-2.57A1.11,1.11,0,0,1,4.69,3ZM2.6,8.05a.26.26,0,0,1,.26-.26h7.87a.25.25,0,0,1,.26.26.26.26,0,0,1-.26.25H2.86A.26.26,0,0,1,2.6,8.05Zm0,2.49a.26.26,0,0,1,.26-.26H8.48a.26.26,0,0,1,0,.52H2.86A.26.26,0,0,1,2.6,10.54Z"/></g></g></svg>