<svg xmlns="http://www.w3.org/2000/svg" viewBox="0 0 50 50"><defs><style>.cls-1{fill:#fff;}.cls-2{fill:#3d7b7e;}</style></defs><g id="Layer_2" data-name="Layer 2"><g id="Layer_1-2" data-name="Layer 1"><rect class="cls-1" x="1" y="1.03" width="48" height="48" rx="24"/><path class="cls-2" d="M4.46,25A20.69,20.69,0,0,1,25,4.46,20.72,20.72,0,0,1,45.59,25,20.71,20.71,0,0,1,25,45.59,20.7,20.7,0,0,1,4.46,25Zm11.29,4.24h5v5a2,2,0,0,0,2.13,2.15h4.28a2,2,0,0,0,2.13-2.15v-5h5a2,2,0,0,0,2.13-2.13V22.84a2,2,0,0,0-2.13-2.13h-5V15.78a2,2,0,0,0-2.13-2.15H22.85a2,2,0,0,0-2.13,2.15v4.93h-5a2,2,0,0,0-2.12,2.13v4.29A2,2,0,0,0,15.75,29.26Z"/><path class="cls-2" d="M4.46,25A20.69,20.69,0,0,1,25,4.46,20.72,20.72,0,0,1,45.59,25,20.71,20.71,0,0,1,25,45.59,20.7,20.7,0,0,1,4.46,25Zm11.29,4.24h5v5a2,2,0,0,0,2.13,2.15h4.28a2,2,0,0,0,2.13-2.15v-5h5a2,2,0,0,0,2.13-2.13V22.84a2,2,0,0,0-2.13-2.13h-5V15.78a2,2,0,0,0-2.13-2.15H22.85a2,2,0,0,0-2.13,2.15v4.93h-5a2,2,0,0,0-2.12,2.13v4.29A2,2,0,0,0,15.75,29.26Z"/><path class="cls-2" d="M25,50A25,25,0,1,1,50,25,25,25,0,0,1,25,50ZM25,1.71A23.29,23.29,0,1,0,48.29,25,23.32,23.32,0,0,0,25,1.71Z"/></g></g></svg>