<svg xmlns="http://www.w3.org/2000/svg" viewBox="0 0 12.05 14.96"><defs><style>.cls-1{fill:#fff;}</style></defs><g id="Layer_2" data-name="Layer 2"><g id="Layer_1-2" data-name="Layer 1"><path class="cls-1" d="M5.52,14.79C1.34,12.19,0,11.44,0,9V3.22C0,2.38.24,2.09,1,1.8,2.36,1.28,4.12.61,5.46.12A1.71,1.71,0,0,1,6,0,1.71,1.71,0,0,1,6.6.12C7.94.58,9.69,1.28,11,1.8c.79.3,1,.58,1,1.42V9c0,2.43-1.31,3.24-5.52,5.78A1.15,1.15,0,0,1,6,15,1.19,1.19,0,0,1,5.52,14.79Zm.91-.61c3.57-2.32,5.06-2.94,5.06-5.24V3.32c0-.55-.11-.75-.5-.9C10.15,2.1,7.32,1,6.48.7A1.31,1.31,0,0,0,6,.58,1.11,1.11,0,0,0,5.57.7C4.74,1,1.9,2.09,1.07,2.42c-.4.15-.5.35-.5.9V8.94c0,2.3,1.46,3,5,5.24a.82.82,0,0,0,.42.18A.73.73,0,0,0,6.43,14.18Z"/><path class="cls-1" d="M5.7,10.24l0-2.62L3.45,9a.4.4,0,0,1-.23.08.28.28,0,0,1-.28-.3.3.3,0,0,1,.18-.28L5.44,7.16,3.11,5.77a.3.3,0,0,1,.13-.58.37.37,0,0,1,.21.06L5.72,6.66l0-2.61A.29.29,0,0,1,6,3.74c.19,0,.29.11.29.31V6.66L8.61,5.22a.37.37,0,0,1,.21-.08.31.31,0,0,1,.3.32.28.28,0,0,1-.18.28L6.57,7.15,8.94,8.57a.27.27,0,0,1,.17.27.3.3,0,0,1-.29.31.33.33,0,0,1-.21-.07L6.29,7.62l0,2.62a.28.28,0,0,1-.3.32A.29.29,0,0,1,5.7,10.24Z"/></g></g></svg>