<svg xmlns="http://www.w3.org/2000/svg" viewBox="0 0 48 48"><defs><style>.cls-1{fill:#fff;}</style></defs><g id="Layer_2" data-name="Layer 2"><g id="Layer_1-2" data-name="Layer 1"><path class="cls-1" d="M0,24A24.14,24.14,0,0,1,24,0,24.18,24.18,0,0,1,48,24,24.17,24.17,0,0,1,24,48,24.16,24.16,0,0,1,0,24Zm13.17,5H19v5.78a2.36,2.36,0,0,0,2.49,2.51h5A2.36,2.36,0,0,0,29,34.73V29h5.8a2.37,2.37,0,0,0,2.49-2.49v-5A2.37,2.37,0,0,0,34.75,19H29V13.21a2.35,2.35,0,0,0-2.49-2.5h-5A2.35,2.35,0,0,0,19,13.21V19H13.17a2.35,2.35,0,0,0-2.46,2.49v5A2.37,2.37,0,0,0,13.17,29Z"/></g></g></svg>