<svg xmlns="http://www.w3.org/2000/svg" viewBox="0 0 39.32 12"><defs><style>.cls-1{fill:#2b4375;}.cls-2{fill:#f2cd26;}</style></defs><g id="Layer_2" data-name="Layer 2"><g id="Layer_1-2" data-name="Layer 1"><path class="cls-1" d="M12.75,3.4H11.39V8.6h1.36c1.52,0,2.36-.93,2.36-2.59S14.27,3.4,12.75,3.4Z"/><path class="cls-1" d="M5,5.14A1.34,1.34,0,0,0,3.66,6.52H6.29A1.29,1.29,0,0,0,5,5.14Z"/><polygon class="cls-1" points="19.33 3.67 18.26 6.72 20.43 6.72 19.36 3.67 19.33 3.67"/><path class="cls-1" d="M36.53,0H2.81A2.5,2.5,0,0,0,0,2.8V9.2A2.5,2.5,0,0,0,2.81,12H36.53a2.5,2.5,0,0,0,2.79-2.8V2.8A2.5,2.5,0,0,0,36.53,0ZM5.06,8.73A1.42,1.42,0,0,0,6.36,8,.36.36,0,0,1,7,8.17.6.6,0,0,1,7,8.41a1.94,1.94,0,0,1-1.87,1A2.17,2.17,0,0,1,2.83,7,2.22,2.22,0,0,1,5,4.44a2.09,2.09,0,0,1,2.1,2.25.41.41,0,0,1-.44.46h-3C3.66,8.13,4.19,8.73,5.06,8.73Zm4,.25a.42.42,0,1,1-.83,0V3a.42.42,0,1,1,.83,0Zm3.73.37H11a.4.4,0,0,1-.42-.43V3.08A.4.4,0,0,1,11,2.65H12.8C14.79,2.65,16,3.89,16,6S14.8,9.35,12.8,9.35Zm8.87.07a.4.4,0,0,1-.41-.32l-.59-1.67H18L17.43,9.1a.4.4,0,0,1-.41.32.39.39,0,0,1-.42-.37.6.6,0,0,1,0-.23L18.81,3a.56.56,0,0,1,1.07,0L22,8.82a.6.6,0,0,1,.05.23A.39.39,0,0,1,21.67,9.42Zm3.7,0A2.33,2.33,0,0,1,23,8.09a1.54,1.54,0,0,1,0-.3.38.38,0,0,1,.38-.43.4.4,0,0,1,.41.33,1.59,1.59,0,0,0,1.71,1c.91,0,1.57-.48,1.57-1.14s-.38-.93-1.3-1.14l-.75-.16C23.6,6,23,5.37,23,4.42c0-1.11,1-1.88,2.36-1.88A2.2,2.2,0,0,1,27.65,4a1,1,0,0,1,0,.2.36.36,0,0,1-.38.38.41.41,0,0,1-.42-.32,1.45,1.45,0,0,0-1.51-1c-.84,0-1.48.41-1.48,1.09s.36.89,1.27,1.09l.74.17c1.4.3,2,.86,2,1.81C27.85,8.69,26.87,9.46,25.37,9.46Z"/><path class="cls-2" d="M35.85,4,32.74,8.32a.41.41,0,0,1-.37.19A.48.48,0,0,1,32,8.34L30.06,6.22A.57.57,0,0,1,30,5.89a.44.44,0,0,1,.45-.44.5.5,0,0,1,.36.18l1.58,1.71L35.13,3.5a.47.47,0,0,1,.37-.19.44.44,0,0,1,.45.44A.53.53,0,0,1,35.85,4Z"/></g></g></svg>