<svg xmlns="http://www.w3.org/2000/svg" viewBox="0 0 16 16"><defs><style>.cls-1{fill:#d8222f;}</style></defs><g id="Layer_2" data-name="Layer 2"><g id="Layer_1-2" data-name="Layer 1"><path class="cls-1" d="M0,8A8,8,0,0,1,8,0a8.06,8.06,0,0,1,8,8,8.06,8.06,0,0,1-8,8A8.06,8.06,0,0,1,0,8Zm5.71,3.22L8,8.93l2.3,2.29a.67.67,0,0,0,.46.2.66.66,0,0,0,.65-.66.65.65,0,0,0-.18-.46L8.92,8l2.3-2.31a.6.6,0,0,0,.19-.46.64.64,0,0,0-.64-.64.61.61,0,0,0-.45.19L8,7.1,5.69,4.8a.59.59,0,0,0-.46-.19.64.64,0,0,0-.64.64.66.66,0,0,0,.19.46L7.07,8l-2.29,2.3a.64.64,0,0,0-.19.45.65.65,0,0,0,1.12.46Z"/></g></g></svg>