<svg xmlns="http://www.w3.org/2000/svg" viewBox="0 0 56 56"><defs><style>.cls-1{fill:#fff;}</style></defs><g id="Layer_2" data-name="Layer 2"><g id="Layer_1-2" data-name="Layer 1"><path class="cls-1" d="M5,28A23.18,23.18,0,0,1,28,5,23.21,23.21,0,0,1,51.06,28a23.19,23.19,0,0,1-23,23A23.19,23.19,0,0,1,5,28Zm12.65,4.75h5.57v5.56a2.25,2.25,0,0,0,2.39,2.4h4.79a2.25,2.25,0,0,0,2.38-2.4V32.77h5.57a2.27,2.27,0,0,0,2.39-2.38V25.58a2.27,2.27,0,0,0-2.39-2.39H32.77V17.67a2.25,2.25,0,0,0-2.38-2.4H25.6a2.25,2.25,0,0,0-2.39,2.4v5.52H17.64a2.26,2.26,0,0,0-2.37,2.39v4.81A2.27,2.27,0,0,0,17.64,32.77Z"/><path class="cls-1" d="M28,56A28,28,0,1,1,56,28,28,28,0,0,1,28,56ZM28,1.92A26.08,26.08,0,1,0,54.08,28,26.11,26.11,0,0,0,28,1.92Z"/></g></g></svg>