<svg xmlns="http://www.w3.org/2000/svg" viewBox="0 0 20 56"><defs><style>.cls-1{fill:#fbbe01;}.cls-2{fill:#ae1518;}.cls-3{fill:#000772;}.cls-4{fill:#fffa00;}</style></defs><g id="Layer_2" data-name="Layer 2"><g id="Layer_1-2" data-name="Layer 1"><rect class="cls-1" x="10" y="18.67" width="10" height="18.67"/><rect class="cls-2" x="10" y="37.33" width="10" height="18.67"/><rect class="cls-2" x="10" width="10" height="18.67"/><rect class="cls-3" width="10" height="56"/><polygon class="cls-4" points="4.42 24.27 5.33 27.14 8.34 27.12 5.89 28.87 6.84 31.73 4.42 29.94 2 31.73 2.95 28.87 0.5 27.12 3.51 27.14 4.42 24.27"/><polygon class="cls-4" points="5.58 12.9 6.49 15.77 9.5 15.75 7.05 17.5 8 20.36 5.58 18.57 3.16 20.36 4.11 17.5 1.66 15.75 4.67 15.77 5.58 12.9"/><polygon class="cls-4" points="5.58 35.64 6.49 38.52 9.5 38.49 7.05 40.24 8 43.1 5.58 41.31 3.16 43.1 4.11 40.24 1.66 38.49 4.67 38.52 5.58 35.64"/></g></g></svg>