<svg xmlns="http://www.w3.org/2000/svg" viewBox="0 0 16 16"><g id="Layer_2" data-name="Layer 2"><g id="Layer_1-2" data-name="Layer 1"><path d="M0,8A8,8,0,0,1,8,0a8.06,8.06,0,0,1,8,8,8.06,8.06,0,0,1-8,8A8.06,8.06,0,0,1,0,8ZM14.67,8A6.67,6.67,0,1,0,8,14.67,6.66,6.66,0,0,0,14.67,8Zm-8.2,3.36L4.56,9a.84.84,0,0,1-.18-.48A.6.6,0,0,1,5,7.9a.66.66,0,0,1,.58.32l1.55,2L10.36,5a.67.67,0,0,1,.54-.36.62.62,0,0,1,.65.58,1.18,1.18,0,0,1-.19.5L7.77,11.36a.73.73,0,0,1-.63.37A.81.81,0,0,1,6.47,11.36Z"/></g></g></svg>