<svg xmlns="http://www.w3.org/2000/svg" viewBox="0 0 16 16"><g id="Layer_2" data-name="Layer 2"><g id="Layer_1-2" data-name="Layer 1"><path d="M0,8A8,8,0,0,1,8,0a8.06,8.06,0,0,1,8,8,8.06,8.06,0,0,1-8,8A8.06,8.06,0,0,1,0,8ZM8.49,9.1V9c0-.45.26-.74.82-1.11.78-.52,1.35-1,1.35-2,0-1.35-1.2-2.06-2.58-2.06A2.45,2.45,0,0,0,5.55,5.26a1.42,1.42,0,0,0-.08.4A.56.56,0,0,0,6,6.22c.46,0,.53-.24.8-.55A1.34,1.34,0,0,1,8,5,1.07,1.07,0,0,1,9.24,6c0,.55-.34.82-1,1.31a1.9,1.9,0,0,0-1,1.63V9a.58.58,0,0,0,.65.64A.6.6,0,0,0,8.49,9.1Zm.2,2.15a.88.88,0,1,0-.88.84A.87.87,0,0,0,8.69,11.25Z"/></g></g></svg>