<?xml version="1.0" encoding="utf-8"?>
<!-- Generator: Adobe Illustrator 25.2.0, SVG Export Plug-In . SVG Version: 6.00 Build 0)  -->
<svg version="1.1" id="Layer_1" xmlns="http://www.w3.org/2000/svg" xmlns:xlink="http://www.w3.org/1999/xlink" x="0px" y="0px"
	 viewBox="0 0 32 28.6" style="enable-background:new 0 0 32 28.6;" xml:space="preserve">
<style type="text/css">
	.st0{fill:#FFFFFF;}
</style>
<g id="Layer_2_1_">
	<g id="Layer_1-2">
		<path class="st0" d="M25.2,17.3l-1.2-2.9l-0.3-0.6l-1-2.4l-0.2-0.3L17.6,0h-3.5c-1,0-2,0.1-3,0.2C6.3,0.9,2.7,3.8,2.7,8.7
			c0,0.7,0.1,1.5,0.4,2.2c0.2,0.7,0.6,1.3,1,1.9c1,1.2,2.2,2.1,3.6,2.8h0.1l-1,2.1l-1.5,3.5C4.9,21.9,4,24,3.4,25
			c-1,1.9-1.8,2-3.4,2v1.6c1.6,0,8.9,0,8.9,0c1.6,0,3.1-0.2,4.7-0.5c3.7-1,5.9-3.5,5.9-6.7c0.1-2-0.7-3.9-2.2-5.2
			c-0.2-0.2-0.4-0.4-0.6-0.5c-1.3-1-2.7-1.9-4.2-2.6l-0.9-0.5l-0.2-0.1l1.8-4l-1-2.5l-2.5,5.6c-0.2,0-0.3-0.1-0.5-0.2l-0.6-0.3
			C7,10.2,6.1,8.5,6.2,6.8c0-3.7,3.7-5,6.9-5h1c0.1,0.2,3.2,7.5,6.1,14.4l0.6,1.5c2.5,5.8,4.6,10.9,4.6,10.9H32V27h-1
			c-2.2-0.5-3.1-3.6-3.7-4.8c-0.1-0.3-0.9-2-2-4.5L25.2,17.3z M9.2,17.3l0.4-0.9c3.5,1.7,5.9,2.8,5.8,5.8c0,2.1-1.3,4.7-6.3,4.7H5
			c0.3-0.8,3-6.7,4.1-9.3L9.2,17.3z"/>
	</g>
</g>
</svg>
