<svg xmlns="http://www.w3.org/2000/svg" viewBox="0 0 32 28.57"><g id="Layer_2" data-name="Layer 2"><g id="Layer_1-2" data-name="Layer 1"><path d="M25.19,17.31l-1.25-2.86-.27-.61-1-2.41-.16-.34L17.63,0H14.1a20.83,20.83,0,0,0-3,.2C6.28.9,2.7,3.83,2.7,8.71a7.4,7.4,0,0,0,.36,2.2,6.2,6.2,0,0,0,1,1.89,10.44,10.44,0,0,0,3.64,2.77l.08,0-1,2.07L5.28,21.11C4.9,21.94,4,24,3.42,25c-1,1.9-1.8,2-3.41,2v1.59c1.65,0,8.94,0,8.94,0a20.71,20.71,0,0,0,4.65-.51c3.7-1,5.86-3.47,5.86-6.7a6.87,6.87,0,0,0-2.17-5.2,6.15,6.15,0,0,0-.58-.51,20.71,20.71,0,0,0-4.17-2.55l-.88-.47-.25-.14,1.77-4L12.14,6,9.63,11.6a3.27,3.27,0,0,1-.49-.18l-.61-.32A4.76,4.76,0,0,1,6.24,6.78c0-3.65,3.74-5,6.9-5h1c.06.16,3.16,7.47,6.1,14.42l.62,1.47c2.45,5.77,4.62,10.9,4.62,10.9H32V27H31c-2.23-.52-3.15-3.56-3.7-4.8-.12-.27-.9-2-2-4.47Zm-16,0,.38-.87c3.52,1.72,5.86,2.75,5.85,5.77,0,2.13-1.27,4.7-6.34,4.7H5c.32-.75,3-6.7,4.1-9.28Z"/></g></g></svg>