<svg xmlns="http://www.w3.org/2000/svg" viewBox="0 0 18 18"><defs><style>.cls-1{fill:none;}</style></defs><g id="Layer_2" data-name="Layer 2"><g id="Layer_1-2" data-name="Layer 1"><rect class="cls-1" width="18" height="18"/><path d="M4.42,16.59a1.74,1.74,0,0,1-.51-1.24L3.41,4.83H2.54a.52.52,0,0,1-.38-.16A.53.53,0,0,1,2,4.28a.52.52,0,0,1,.16-.38.57.57,0,0,1,.38-.16H15.46a.55.55,0,0,1,.54.54.53.53,0,0,1-.16.39.51.51,0,0,1-.38.16h-.87l-.5,10.51a1.77,1.77,0,0,1-.51,1.25,1.82,1.82,0,0,1-1.27.46H5.69A1.77,1.77,0,0,1,4.42,16.59ZM12.2,16a.72.72,0,0,0,.53-.21.76.76,0,0,0,.23-.53l.47-10.39H4.54L5,15.22a.78.78,0,0,0,.23.53.7.7,0,0,0,.52.21ZM5.83,2.64A1.63,1.63,0,0,1,6.31,1.4,1.83,1.83,0,0,1,7.62,1h2.74a1.85,1.85,0,0,1,1.32.45,1.62,1.62,0,0,1,.47,1.24V4.26H11V2.71a.65.65,0,0,0-.2-.49A.69.69,0,0,0,10.29,2H7.7a.69.69,0,0,0-.52.19.61.61,0,0,0-.2.49V4.26H5.83Zm.71,12a.41.41,0,0,1-.13-.32L6.18,6.57a.42.42,0,0,1,.13-.31.49.49,0,0,1,.64,0,.41.41,0,0,1,.14.3l.22,7.73a.41.41,0,0,1-.12.31.45.45,0,0,1-.33.12A.48.48,0,0,1,6.54,14.61Zm2.12,0a.42.42,0,0,1-.13-.31V6.57a.42.42,0,0,1,.13-.31.54.54,0,0,1,.68,0,.42.42,0,0,1,.13.31v7.72a.42.42,0,0,1-.13.31.54.54,0,0,1-.68,0Zm2.15,0a.41.41,0,0,1-.12-.31l.22-7.72a.44.44,0,0,1,.45-.43.45.45,0,0,1,.33.12.42.42,0,0,1,.13.31l-.23,7.72a.41.41,0,0,1-.13.32.48.48,0,0,1-.32.11A.45.45,0,0,1,10.81,14.6Z"/></g></g></svg>