<svg xmlns="http://www.w3.org/2000/svg" viewBox="0 0 229.8 229.8"><defs><style>.cls-1{fill:#3d7b7e;}</style></defs><g id="Layer_2" data-name="Layer 2"><g id="Layer_1-2" data-name="Layer 1"><path class="cls-1" d="M0,115C0,51.8,51.8,0,114.84,0s115,51.8,115,115S178,229.8,115,229.8,0,178,0,115Zm220.9,0A106,106,0,1,0,115,220.9,106.1,106.1,0,0,0,220.9,115ZM98,168.52,63.05,127.85a6.75,6.75,0,0,1-1.41-3.75,4.3,4.3,0,0,1,4.22-4.33,4.79,4.79,0,0,1,4.1,2.11l32.23,37.85,58.59-91.41a5.53,5.53,0,0,1,4-2.46,4.48,4.48,0,0,1,4.45,4.22,6.61,6.61,0,0,1-1.17,3.16l-61.29,95.28a5.64,5.64,0,0,1-4.34,2.34A5.21,5.21,0,0,1,98,168.52Z"/></g></g></svg>