<svg xmlns="http://www.w3.org/2000/svg" viewBox="0 0 64.48 54"><g id="Layer_2" data-name="Layer 2"><g id="Layer_1-2" data-name="Layer 1"><path d="M33.68,47.38V6.6C33.68,2.32,36,0,40.33,0h17.5c4.31,0,6.65,2.32,6.65,6.6V47.38c0,4.28-2.34,6.62-6.65,6.62H40.33C36,54,33.68,51.66,33.68,47.38Zm24,4.58c3.3,0,4.8-1.45,4.8-4.72V6.76c0-3.27-1.5-4.74-4.8-4.74H40.49C37.22,2,35.7,3.49,35.7,6.76V47.24c0,3.27,1.52,4.72,4.79,4.72ZM40,10.52V8a.93.93,0,0,1,1-1h2.45a1,1,0,0,1,1,1v2.51a.94.94,0,0,1-1,1H41A.92.92,0,0,1,40,10.52Zm0,7.06V15.07a.92.92,0,0,1,1-1h2.45a.93.93,0,0,1,1,1v2.51a1,1,0,0,1-1,1H41A.94.94,0,0,1,40,17.58Zm0,7V22.13a.92.92,0,0,1,1-.95h2.45a.93.93,0,0,1,1,.95v2.48a1,1,0,0,1-1,1H41A.94.94,0,0,1,40,24.61Zm0,22.06V44.16a.92.92,0,0,1,1-.95h2.45a.93.93,0,0,1,1,.95v2.51a.93.93,0,0,1-1,.95H41A.92.92,0,0,1,40,46.67Zm6.82-36.15V8a.93.93,0,0,1,1-1h2.45a1,1,0,0,1,1,1v2.51a1,1,0,0,1-1,1H47.77A.92.92,0,0,1,46.82,10.52Zm0,7.06V15.07a.91.91,0,0,1,1-1h2.45a.94.94,0,0,1,1,1v2.51a1,1,0,0,1-1,1H47.77A.93.93,0,0,1,46.82,17.58Zm0,7V22.13a.91.91,0,0,1,1-.95h2.45a.94.94,0,0,1,1,.95v2.48a1,1,0,0,1-1,1H47.77A.94.94,0,0,1,46.82,24.61Zm0,22.06V44.16a.91.91,0,0,1,1-.95h2.45a.94.94,0,0,1,1,.95v2.51a.94.94,0,0,1-1,.95H47.77A.91.91,0,0,1,46.82,46.67Zm6.81-36.15V8a.93.93,0,0,1,1-1H57a1,1,0,0,1,1,1v2.51a1,1,0,0,1-1,1H54.59A.92.92,0,0,1,53.63,10.52Zm0,7.06V15.07a.92.92,0,0,1,1-1H57a1,1,0,0,1,1,1v2.51a1,1,0,0,1-1,1H54.59A.94.94,0,0,1,53.63,17.58Zm0,29.09V44.16a.92.92,0,0,1,1-.95H57a1,1,0,0,1,1,.95v2.51a1,1,0,0,1-1,.95H54.59A.92.92,0,0,1,53.63,46.67Z"/><path d="M0,27.2a1,1,0,0,0,1,1H19.65l5.81-.11-5.78,5.62L16.3,37a1.09,1.09,0,0,0-.3.82,1,1,0,0,0,1.8.68L28.24,28a1,1,0,0,0,.33-.77,1,1,0,0,0-.33-.76L18.07,16.14c-.46-.47-.73-.58-1-.58a1,1,0,0,0-1,1,1,1,0,0,0,.3.79l3.38,3.3,5.78,5.59-5.81-.11H1a1,1,0,0,0-1,1Z"/></g></g></svg>