<svg xmlns="http://www.w3.org/2000/svg" viewBox="0 0 277.21 232.15"><g id="Layer_2" data-name="Layer 2"><g id="Layer_1-2" data-name="Layer 1"><path d="M144.79,203.67V28.36C144.79,10,154.75,0,173.38,0h75.23c18.52,0,28.6,10,28.6,28.36V203.67c0,18.4-10.08,28.48-28.6,28.48H173.38C154.75,232.15,144.79,222.07,144.79,203.67Zm103,19.69c14.18,0,20.63-6.21,20.63-20.27v-174C268.42,15,262,8.67,247.79,8.67H174.08C160,8.67,153.46,15,153.46,29.06v174c0,14.06,6.56,20.27,20.62,20.27Z"/><path d="M0,117a4.46,4.46,0,0,0,4.45,4.46h80l25-.47L84.61,145.08,70.08,159.14a4.68,4.68,0,0,0-1.29,3.52A4.35,4.35,0,0,0,73.24,167a4.44,4.44,0,0,0,3.28-1.4l44.89-45.36a4.54,4.54,0,0,0,0-6.56L77.7,69.37c-2-2-3.17-2.46-4.46-2.46a4.38,4.38,0,0,0-4.45,4.46,4.16,4.16,0,0,0,1.29,3.4L84.61,89l24.84,24-25-.47h-80A4.45,4.45,0,0,0,0,117Z"/><g id="g2734"><g id="g2726"><g id="g2604"><path id="path2606" d="M206.49,74.24v84.38l15-7.06V66.91Z"/></g><g id="g2608"><path id="path2610" d="M258.43,99l2.08,21.5-29-6.31"/></g><g id="g2620"><path id="path2622" d="M176.49,126.5c0-10.62,11.58-19.58,27.36-22.31V94.66c-24.14,2.92-42.36,16.07-42.36,31.84,0,16.35,19.56,29.87,45,32.12v-9.41c-17.12-2.14-30-11.49-30-22.71m47.63-31.83v9.52a46.45,46.45,0,0,1,16.38,5.93l10.61-6.56c-7.23-4.47-16.56-7.63-27-8.89"/></g></g></g></g></g></svg>