<svg xmlns="http://www.w3.org/2000/svg" viewBox="0 0 71.48 40"><g id="Layer_2" data-name="Layer 2"><g id="Layer_1-2" data-name="Layer 1"><path d="M0,38a1.91,1.91,0,0,1,1.94-2H7.75V5.15C7.75,1.75,9.53,0,12.9,0H58.58C62,0,63.76,1.75,63.76,5.15v30.9h5.78a2,2,0,0,1,0,4H1.94A1.9,1.9,0,0,1,0,38Zm9.71-2H61.77V5.47C61.77,3.13,60.6,2,58.26,2h-45C10.88,2,9.71,3.13,9.71,5.47Z"/><path d="M51.73,10.2c0,1.41-.74,2.34-1.86,2.34H21.55c-1.11,0-1.86-.93-1.86-2.34V6.73c0-1.41.75-2.34,1.86-2.34H49.87c1.12,0,1.86.93,1.86,2.34Z"/><path d="M36.63,16.31v7.88l-.08,4.22,3.64-3.68,2.36-2.42a1,1,0,0,1,.64-.27.81.81,0,0,1,.87.83,1.06,1.06,0,0,1-.48.82l-7.19,7a.93.93,0,0,1-.66.32.92.92,0,0,1-.67-.32l-7.22-7a1.12,1.12,0,0,1-.45-.82.82.82,0,0,1,.88-.83,1,1,0,0,1,.64.27l2.36,2.42,3.63,3.68-.08-4.22V16.31a.91.91,0,0,1,1.81,0Z"/></g></g></svg>