<svg xmlns="http://www.w3.org/2000/svg" viewBox="0 0 45.13 56"><defs><style>.cls-1{fill:#fbbe01;}.cls-2{fill:#ae1518;}</style></defs><g id="Layer_2" data-name="Layer 2"><g id="Layer_1-2" data-name="Layer 1"><path class="cls-1" d="M43.76,33.87V11.36c0-2.21-.43-3-2-3.63-3.35-1.26-14.7-5.62-18-6.88A6,6,0,0,0,22,.35V55.52a3.08,3.08,0,0,0,1.54-.67C37.8,45.56,43.76,43.07,43.76,33.87Z"/><path class="cls-2" d="M20.67,55.37C5,45.65,0,42.83,0,33.72V12.05C0,8.91.89,7.82,3.82,6.73,8.83,4.8,15.44,2.27,20.44.46A6.43,6.43,0,0,1,22.57,0a6.32,6.32,0,0,1,2.12.46c5,1.72,11.59,4.34,16.59,6.27,3,1.12,3.85,2.18,3.85,5.32V33.72c0,9.11-4.91,12.13-20.69,21.65a4.12,4.12,0,0,1-1.87.63A4.2,4.2,0,0,1,20.67,55.37Zm2-53.21V53.73a2.87,2.87,0,0,0,1.44-.63C37.43,44.41,43,42.09,43,33.49v-21c0-2.07-.41-2.82-1.87-3.39C38,7.88,27.4,3.79,24.26,2.62A5.56,5.56,0,0,0,22.65,2.16Z"/></g></g></svg>