<svg xmlns="http://www.w3.org/2000/svg" viewBox="0 0 38 33.93"><defs><style>.cls-1{fill:#fff;}</style></defs><g id="Layer_2" data-name="Layer 2"><g id="Layer_1-2" data-name="Layer 1"><path class="cls-1" d="M29.91,20.55l-1.48-3.39-.32-.73c-.41-.93-.82-1.89-1.24-2.85l-.18-.41L20.94,0H16.75a25,25,0,0,0-3.6.24c-5.69.83-9.94,4.3-9.94,10.11A8.73,8.73,0,0,0,3.63,13,7.43,7.43,0,0,0,4.85,15.2a12.44,12.44,0,0,0,4.31,3.29l.1.05L8.13,21,6.27,25.07c-.45,1-1.58,3.43-2.21,4.61C2.85,32,1.93,32,0,32v1.9H10.61a24.41,24.41,0,0,0,5.53-.61c4.39-1.18,7-4.12,7-7.95a8.13,8.13,0,0,0-2.59-6.18,7.25,7.25,0,0,0-.67-.61,25.9,25.9,0,0,0-5-3L13.83,15l-.29-.16,2.1-4.75L14.42,7.15l-3,6.62a4.56,4.56,0,0,1-.58-.21l-.72-.38A5.65,5.65,0,0,1,7.41,8.06c0-4.34,4.44-6,8.2-6H16.8l7.25,17.12L24.79,21l5.48,13c.19,0,7.42,0,7.73,0V32H36.84c-2.65-.62-3.75-4.23-4.4-5.7C32.3,26,31.38,23.91,30.12,21ZM11,20.6l.45-1c4.18,2,7,3.26,7,6.85,0,2.52-1.5,5.57-7.53,5.57H5.93c.38-.89,3.5-7.95,4.86-11Z"/></g></g></svg>